<mxfile host="app.diagrams.net" modified="2023-10-25T14:58:43.302Z" agent="Mozilla/5.0 (X11; Linux x86_64; rv:109.0) Gecko/20100101 Firefox/118.0" etag="VUUmXm3OQ5rme8MLvTQS" version="22.0.8" type="github">
  <diagram name="Page-1" id="2YBvvXClWsGukQMizWep">
    <mxGraphModel dx="1434" dy="737" grid="1" gridSize="10" guides="1" tooltips="1" connect="1" arrows="1" fold="1" page="1" pageScale="1" pageWidth="850" pageHeight="1100" math="0" shadow="0">
      <root>
        <mxCell id="0" />
        <mxCell id="1" parent="0" />
        <mxCell id="cc4XYzGoG_5n-Fmv61_O-27" value="" style="html=1;points=[];perimeter=orthogonalPerimeter;outlineConnect=0;targetShapes=umlLifeline;portConstraint=eastwest;newEdgeStyle={&quot;edgeStyle&quot;:&quot;elbowEdgeStyle&quot;,&quot;elbow&quot;:&quot;vertical&quot;,&quot;curved&quot;:0,&quot;rounded&quot;:0};" parent="1" vertex="1">
          <mxGeometry x="325" y="180" width="10" height="60" as="geometry" />
        </mxCell>
        <mxCell id="aM9ryv3xv72pqoxQDRHE-1" value=":Agent" style="shape=umlLifeline;perimeter=lifelinePerimeter;whiteSpace=wrap;html=1;container=0;dropTarget=0;collapsible=0;recursiveResize=0;outlineConnect=0;portConstraint=eastwest;newEdgeStyle={&quot;edgeStyle&quot;:&quot;elbowEdgeStyle&quot;,&quot;elbow&quot;:&quot;vertical&quot;,&quot;curved&quot;:0,&quot;rounded&quot;:0};" parent="1" vertex="1">
          <mxGeometry x="60" y="40" width="100" height="460" as="geometry" />
        </mxCell>
        <mxCell id="aM9ryv3xv72pqoxQDRHE-2" value="" style="html=1;points=[];perimeter=orthogonalPerimeter;outlineConnect=0;targetShapes=umlLifeline;portConstraint=eastwest;newEdgeStyle={&quot;edgeStyle&quot;:&quot;elbowEdgeStyle&quot;,&quot;elbow&quot;:&quot;vertical&quot;,&quot;curved&quot;:0,&quot;rounded&quot;:0};" parent="aM9ryv3xv72pqoxQDRHE-1" vertex="1">
          <mxGeometry x="45" y="70" width="10" height="360" as="geometry" />
        </mxCell>
        <mxCell id="aM9ryv3xv72pqoxQDRHE-5" value=":DiscoverySystem" style="shape=umlLifeline;perimeter=lifelinePerimeter;whiteSpace=wrap;html=1;container=0;dropTarget=0;collapsible=0;recursiveResize=0;outlineConnect=0;portConstraint=eastwest;newEdgeStyle={&quot;edgeStyle&quot;:&quot;elbowEdgeStyle&quot;,&quot;elbow&quot;:&quot;vertical&quot;,&quot;curved&quot;:0,&quot;rounded&quot;:0};" parent="1" vertex="1">
          <mxGeometry x="280" y="40" width="100" height="460" as="geometry" />
        </mxCell>
        <mxCell id="aM9ryv3xv72pqoxQDRHE-6" value="" style="html=1;points=[];perimeter=orthogonalPerimeter;outlineConnect=0;targetShapes=umlLifeline;portConstraint=eastwest;newEdgeStyle={&quot;edgeStyle&quot;:&quot;elbowEdgeStyle&quot;,&quot;elbow&quot;:&quot;vertical&quot;,&quot;curved&quot;:0,&quot;rounded&quot;:0};" parent="aM9ryv3xv72pqoxQDRHE-5" vertex="1">
          <mxGeometry x="45" y="80" width="10" height="350" as="geometry" />
        </mxCell>
        <mxCell id="aM9ryv3xv72pqoxQDRHE-7" value="connect(Pseudo)" style="html=1;verticalAlign=bottom;endArrow=block;edgeStyle=elbowEdgeStyle;elbow=vertical;curved=0;rounded=0;" parent="1" source="aM9ryv3xv72pqoxQDRHE-2" target="aM9ryv3xv72pqoxQDRHE-6" edge="1">
          <mxGeometry relative="1" as="geometry">
            <mxPoint x="215" y="130" as="sourcePoint" />
            <Array as="points">
              <mxPoint x="200" y="120" />
            </Array>
          </mxGeometry>
        </mxCell>
        <mxCell id="cc4XYzGoG_5n-Fmv61_O-1" value=":RÃ©seau" style="shape=umlLifeline;perimeter=lifelinePerimeter;whiteSpace=wrap;html=1;container=0;dropTarget=0;collapsible=0;recursiveResize=0;outlineConnect=0;portConstraint=eastwest;newEdgeStyle={&quot;edgeStyle&quot;:&quot;elbowEdgeStyle&quot;,&quot;elbow&quot;:&quot;vertical&quot;,&quot;curved&quot;:0,&quot;rounded&quot;:0};" parent="1" vertex="1">
          <mxGeometry x="500" y="40" width="100" height="460" as="geometry" />
        </mxCell>
        <mxCell id="cc4XYzGoG_5n-Fmv61_O-3" value="sendToAll(connection, Pseudo)" style="html=1;verticalAlign=bottom;endArrow=block;edgeStyle=elbowEdgeStyle;elbow=vertical;curved=0;rounded=0;" parent="1" edge="1">
          <mxGeometry relative="1" as="geometry">
            <mxPoint x="335" y="140" as="sourcePoint" />
            <Array as="points">
              <mxPoint x="425" y="140" />
            </Array>
            <mxPoint x="550" y="140" as="targetPoint" />
          </mxGeometry>
        </mxCell>
        <mxCell id="cc4XYzGoG_5n-Fmv61_O-26" value="" style="endArrow=classic;html=1;rounded=0;elbow=vertical;" parent="1" source="cc4XYzGoG_5n-Fmv61_O-27" target="cc4XYzGoG_5n-Fmv61_O-27" edge="1">
          <mxGeometry width="50" height="50" relative="1" as="geometry">
            <mxPoint x="329.83666666666653" y="210" as="sourcePoint" />
            <mxPoint x="450.17" y="210" as="targetPoint" />
            <Array as="points">
              <mxPoint x="390" y="210" />
            </Array>
          </mxGeometry>
        </mxCell>
        <mxCell id="cc4XYzGoG_5n-Fmv61_O-30" value="sleep()" style="edgeLabel;html=1;align=center;verticalAlign=middle;resizable=0;points=[];" parent="cc4XYzGoG_5n-Fmv61_O-26" vertex="1" connectable="0">
          <mxGeometry x="0.2" relative="1" as="geometry">
            <mxPoint x="23" y="-10" as="offset" />
          </mxGeometry>
        </mxCell>
        <mxCell id="cc4XYzGoG_5n-Fmv61_O-31" value="" style="group" parent="1" vertex="1" connectable="0">
          <mxGeometry x="20" y="240" width="760" height="100" as="geometry" />
        </mxCell>
        <mxCell id="cc4XYzGoG_5n-Fmv61_O-7" value="loop" style="shape=umlFrame;whiteSpace=wrap;html=1;pointerEvents=0;movable=1;resizable=1;rotatable=1;deletable=1;editable=1;locked=0;connectable=1;" parent="cc4XYzGoG_5n-Fmv61_O-31" vertex="1">
          <mxGeometry width="760.0000000000001" height="95.23809523809523" as="geometry" />
        </mxCell>
        <mxCell id="cc4XYzGoG_5n-Fmv61_O-16" value="" style="group" parent="cc4XYzGoG_5n-Fmv61_O-31" vertex="1" connectable="0">
          <mxGeometry width="760.0000000000001" height="100" as="geometry" />
        </mxCell>
        <mxCell id="cc4XYzGoG_5n-Fmv61_O-19" value="" style="line;strokeWidth=1;fillColor=none;align=left;verticalAlign=middle;spacingTop=-1;spacingLeft=3;spacingRight=3;rotatable=0;labelPosition=right;points=[];portConstraint=eastwest;strokeColor=inherit;" parent="cc4XYzGoG_5n-Fmv61_O-16" vertex="1">
          <mxGeometry x="117.93103448275865" y="45.71428571428571" width="131.03448275862073" height="3.8095238095238093" as="geometry" />
        </mxCell>
        <mxCell id="cc4XYzGoG_5n-Fmv61_O-8" value="[For Agent in Agents]" style="text;html=1;align=center;verticalAlign=middle;resizable=1;points=[];autosize=1;strokeColor=none;fillColor=none;movable=1;rotatable=1;deletable=1;editable=1;locked=0;connectable=1;" parent="cc4XYzGoG_5n-Fmv61_O-16" vertex="1">
          <mxGeometry x="65.52068965517243" y="10" width="183.448275862069" height="14.285714285714285" as="geometry" />
        </mxCell>
        <mxCell id="cc4XYzGoG_5n-Fmv61_O-39" value="return()" style="html=1;verticalAlign=bottom;endArrow=block;edgeStyle=elbowEdgeStyle;elbow=vertical;curved=0;rounded=0;dashed=1;" parent="1" source="aM9ryv3xv72pqoxQDRHE-5" target="aM9ryv3xv72pqoxQDRHE-1" edge="1">
          <mxGeometry relative="1" as="geometry">
            <mxPoint x="335" y="480" as="sourcePoint" />
            <Array as="points">
              <mxPoint x="265.5" y="480" />
            </Array>
            <mxPoint x="115" y="480" as="targetPoint" />
          </mxGeometry>
        </mxCell>
        <mxCell id="gZrCHBYVLg_YhAh_wo58-1" value=":ContactManager" style="shape=umlLifeline;perimeter=lifelinePerimeter;whiteSpace=wrap;html=1;container=0;dropTarget=0;collapsible=0;recursiveResize=0;outlineConnect=0;portConstraint=eastwest;newEdgeStyle={&quot;edgeStyle&quot;:&quot;elbowEdgeStyle&quot;,&quot;elbow&quot;:&quot;vertical&quot;,&quot;curved&quot;:0,&quot;rounded&quot;:0};" vertex="1" parent="1">
          <mxGeometry x="680" y="40" width="100" height="460" as="geometry" />
        </mxCell>
        <mxCell id="gZrCHBYVLg_YhAh_wo58-36" value="" style="html=1;points=[];perimeter=orthogonalPerimeter;outlineConnect=0;targetShapes=umlLifeline;portConstraint=eastwest;newEdgeStyle={&quot;edgeStyle&quot;:&quot;elbowEdgeStyle&quot;,&quot;elbow&quot;:&quot;vertical&quot;,&quot;curved&quot;:0,&quot;rounded&quot;:0};" vertex="1" parent="gZrCHBYVLg_YhAh_wo58-1">
          <mxGeometry x="45" y="330" width="10" height="30" as="geometry" />
        </mxCell>
        <mxCell id="gZrCHBYVLg_YhAh_wo58-2" value="&lt;div&gt;setAgents(List&amp;lt;Agent&amp;gt;)&lt;/div&gt;" style="html=1;verticalAlign=bottom;endArrow=block;edgeStyle=elbowEdgeStyle;elbow=vertical;curved=0;rounded=0;" edge="1" parent="1">
          <mxGeometry relative="1" as="geometry">
            <mxPoint x="335" y="370" as="sourcePoint" />
            <Array as="points">
              <mxPoint x="425" y="370" />
            </Array>
            <mxPoint x="726.5" y="370" as="targetPoint" />
          </mxGeometry>
        </mxCell>
        <mxCell id="gZrCHBYVLg_YhAh_wo58-30" value="&lt;div&gt;ref&lt;/div&gt;" style="shape=umlFrame;whiteSpace=wrap;html=1;pointerEvents=0;movable=1;resizable=1;rotatable=1;deletable=1;editable=1;locked=0;connectable=1;" vertex="1" parent="1">
          <mxGeometry x="20" y="410" width="760" height="50" as="geometry" />
        </mxCell>
        <mxCell id="gZrCHBYVLg_YhAh_wo58-35" value="ChangePseudo" style="text;html=1;align=center;verticalAlign=middle;resizable=0;points=[];autosize=1;strokeColor=none;fillColor=none;" vertex="1" parent="1">
          <mxGeometry x="105" y="410" width="110" height="30" as="geometry" />
        </mxCell>
        <mxCell id="gZrCHBYVLg_YhAh_wo58-37" value="return()" style="html=1;verticalAlign=bottom;endArrow=block;edgeStyle=elbowEdgeStyle;elbow=vertical;curved=0;rounded=0;dashed=1;" edge="1" parent="1" target="aM9ryv3xv72pqoxQDRHE-5">
          <mxGeometry relative="1" as="geometry">
            <mxPoint x="730" y="400" as="sourcePoint" />
            <Array as="points">
              <mxPoint x="660.5" y="400" />
            </Array>
            <mxPoint x="510" y="400" as="targetPoint" />
          </mxGeometry>
        </mxCell>
        <mxCell id="cc4XYzGoG_5n-Fmv61_O-24" value="receiveFromAgent(Pseudo)" style="html=1;verticalAlign=bottom;endArrow=block;edgeStyle=elbowEdgeStyle;elbow=vertical;curved=0;rounded=0;" parent="1" source="cc4XYzGoG_5n-Fmv61_O-1" target="aM9ryv3xv72pqoxQDRHE-6" edge="1">
          <mxGeometry relative="1" as="geometry">
            <mxPoint x="552.5" y="270.95238095238096" as="sourcePoint" />
            <Array as="points">
              <mxPoint x="450" y="270.95238095238096" />
            </Array>
            <mxPoint x="338" y="270.95238095238096" as="targetPoint" />
          </mxGeometry>
        </mxCell>
      </root>
    </mxGraphModel>
  </diagram>
</mxfile>
